<svg id="Capa_1" data-name="Capa 1" xmlns="http://www.w3.org/2000/svg" viewBox="0 0 279.96 136.19"><defs><style>.cls-1{fill:#fff;}</style></defs><path class="cls-1" d="M.36,65.22v-21H41.72L30.25,29.63c-5.28-6.74-6.29-14.17-3-22S37.43,0,44.39.06c29.26.09,58.52,0,88.44,0V20.54H113.34v44H91V21.38H54.54c4,4.51,7.78,8.24,10.8,12.53,2.19,3.11,4.19,6.83,4.76,10.52C72.25,58.16,67.48,64.4,53,65,35.73,65.8,18.41,65.22.36,65.22Z"/><path class="cls-1" d="M92.89,70.51C87.32,92.7,82,113.7,76.83,134.47a9.66,9.66,0,0,1-2,.68c-19.2.74-19.19.73-25.16-17.07-.49-1.46-1.2-2.85-2.1-5-1.13,3.43-2.1,5.9-2.75,8.45-3.6,14.11-7,16.38-21.23,13.59-1.66-.33-4-1.69-4.43-3.07C12.73,111.7,6.61,91.24,0,69.41c8.48.83,17.26-.71,22.39,2.91,4.6,3.24,5.17,12.19,7.73,19.23a52.65,52.65,0,0,0,2.33-5C38.23,69,38.21,69,57.49,70.67c2.3,6.55,4.62,13.2,7.76,22.16l5.29-22.32Z"/><path class="cls-1" d="M279.75,70.15c-14.32,0-28,0-41.61,0-5.57,0-10.93-.5-14.62,5.75-4.27,7.22-4.07,14,.2,20.46,3.82,5.75,8.74,10.78,13.25,16.23-10,4-31.57,2.56-35.85-2.26,1.18-.74,2.32-1.57,3.56-2.21,10.35-5.35,12.61-9.84,10.76-22.78A16.85,16.85,0,0,0,200,70.7c-15.12-1.36-30.45-.41-46.37-.41v52.23c-6.35-15.38-11.36-31-16.9-46.34-.89-2.46-4.08-5.6-6.39-5.75-9.59-.65-19.25-.27-28.45-.27C94.85,92,88.06,113.05,81,134.91h21.26c5.18-5,8.06-9.83,12.14-11.27,9.76-3.43,14.9,2.4,16.1,11.11h47.27v-16.6l1.83-.92c3.94,4.33,7.63,8.93,11.91,12.9,2.42,2.24,5.74,4.84,8.73,4.93,15.92.48,31.87.57,47.8.13,17.61-.48,24.38-14.18,14.49-29-3.45-5.17-7.81-9.74-12.75-15.81h30Zm-168.53,38.7c2.26-6.23,4.45-12.28,7.33-20.2,2.64,7.93,4.55,13.68,6.73,20.2Zm67.44-10.19V86.83c5.72,2.92,15.78-4.34,15.51,5.83S184,94.51,178.66,98.66Z"/><path class="cls-1" d="M245.79,40.57A28.4,28.4,0,0,1,249.55,38c9.61-3.94,13.31-10.7,12.08-22.29C260.87,8.57,253.09.57,244.91.29,229.65-.25,214.35.13,198.42.13V47.39l-1.71.37L180.39.44H147.67L126.2,65.24c7,0,12.68-.43,18.3.12,5.43.53,8.47-2.18,9.2-6.63,1.38-8.46,7.64-4.57,12-5.43,4.53-.89,7.12.85,8.74,5.46.89,2.54,3.83,6.1,6,6.18,14.16.55,28.35.29,44,.29V45.59c1.79,2.79,2.19,3.81,2.92,4.48,5.51,5.09,10.45,13.15,16.78,14.47,11.38,2.36,23.6.66,35.84.66V45.42C268.93,42,256.82,48.42,245.79,40.57ZM156.63,39c2.51-6.7,4.6-12.3,7.45-19.93,2.63,7.56,4.68,13.47,6.92,19.93Zm77.78-11.77c-2.87.81-6.14.19-9.94.19v-10c3.74,0,7.27-.65,10.38.22,2.29.64,4,3.27,6,5C238.74,24.23,236.81,26.57,234.41,27.24Z"/></svg>